<?xml version="1.0" encoding="UTF-8"?><svg id="Layer_1" xmlns="http://www.w3.org/2000/svg" viewBox="0 0 150 150"><defs><style>.cls-1{fill:#b1d235;fill-rule:evenodd;}</style></defs><path class="cls-1" d="m93.07,95.98c1.51,1.07,3.61.7,4.68-.81.53-.76.71-1.66.56-2.51l-6.5-37.4c-.14-.85-.61-1.63-1.37-2.17-.76-.53-1.66-.72-2.51-.56l-37.4,6.5c-.85.15-1.64.61-2.17,1.37-1.07,1.51-.7,3.61.81,4.68.75.53,1.66.71,2.51.56l29.42-5.12-49.41,70.21c-1.07,1.51-.7,3.61.81,4.68,1.51,1.07,3.61.7,4.68-.81l49.41-70.21,5.12,29.42c.15.85.61,1.64,1.37,2.17m-71.8,29.57c.24.42.54.81.97,1.11,1.51,1.07,3.61.7,4.68-.81s.7-3.61-.81-4.68l.05-.07C4.68,98.38,1.41,62.97,20.1,36.42,41.43,6.1,83.29-1.17,113.6,20.16c30.31,21.33,37.59,63.19,16.26,93.51-18.69,26.55-53.12,35.42-81.75,22.88l-.05.07c-1.51-1.07-3.61-.7-4.68.81s-.7,3.61.81,4.68c.42.3.89.45,1.37.54,31.47,13.73,69.26,4.05,89.79-25.12,23.47-33.34,15.46-79.39-17.88-102.86C84.12-8.8,38.07-.79,14.61,32.56-5.92,61.72-2.27,100.56,21.27,125.55"/></svg>